<?xml version="1.0" encoding="UTF-8" standalone="no"?>
<svg width="180px" height="180px" viewBox="0 0 180 180" version="1.1" xmlns="http://www.w3.org/2000/svg" xmlns:xlink="http://www.w3.org/1999/xlink">
    <!-- Generator: Sketch 3.7.2 (28276) - http://www.bohemiancoding.com/sketch -->
    <title>Artboard 7</title>
    <desc>Created with Sketch.</desc>
    <defs></defs>
    <g id="Elements" stroke="none" stroke-width="1" fill="none" fill-rule="evenodd">
        <g id="Artboard-7" fill="#30BAED">
            <path d="M44.313256,173.339742 C47.2199687,174.334887 52.2946752,174.334887 52.2946752,174.334887 L150.953507,174.334887 C150.953507,174.334887 163.988707,171.314908 163.988707,154.494438 C163.988707,137.673969 164,35.0465159 164,35.0465159 C164,35.0465159 161.70479,27.8519785 153.504479,27.8519785 C145.304167,27.8519785 143.182343,34.943547 143.182343,34.943547 C143.182343,34.943547 143.211574,92.3751973 143.211573,98.0820902 C143.211573,98.0820902 140.618085,121.281982 117.451409,121.281982 C99.8656478,121.281982 94.5165789,108.03553 94.5165789,108.03553 C94.5165789,108.03553 91.6062125,111.637449 88.0003076,113.759273 C84.3944028,115.881097 79.4392731,116.78058 79.4392731,116.78058 C79.4392731,116.78058 79.0859262,125.308473 75.992804,130.413 C70.5665087,139.367922 60.0107004,147.15508 60.0107004,147.15508 C58.5478775,148.298367 55.816212,148.274452 54.0810197,146.211088 C52.3458275,144.147724 52.4831511,143.455292 54.0810203,141.214838 C54.658431,140.405221 66.2054429,129.038531 66.2054429,129.038531 C66.2054429,129.038531 76.1176953,116.870927 64.9366002,105.353024 C53.7555051,93.8351209 41.3514051,106.422572 41.3514051,106.422572 L18.9440414,128.625991 C18.9440414,128.625991 15,132.352137 15,138.319019 C15,144.285901 18.1282619,148.622553 18.1282619,148.622553 L39.0302865,169.829499 C39.0302865,169.829499 41.4065433,172.344597 44.313256,173.339742 Z M58.5661589,73.7789029 C58.5661589,73.7789029 58.4724759,60.0102987 75.0050661,60.0102987 C91.5376564,60.0102987 91.5376551,73.7789029 91.5376551,73.7789029 L91.5376551,93.1527012 C91.5376551,93.1527012 92.6758968,105.496717 76.7123927,107.956678 C76.7123927,107.956678 75.8738165,103.651425 70.7116709,98.5991768 C65.5495253,93.5469282 58.5661589,91.9644652 58.5661589,91.9644652 L58.5661589,73.7789029 Z M15.5442062,94.4580148 L15.6378903,16.7686042 C15.6378903,16.7686042 15.5442073,3 32.0767975,3 C48.6093878,3 48.6093865,16.7686042 48.6093865,16.7686042 C48.6093865,16.7686042 48.6093873,57.9115971 48.6093873,91.5850883 C48.6093873,91.5850883 42.3903946,92.8306799 37.6033367,96.3455735 C32.8162789,99.8604671 15.2949561,118.979465 15.2949561,118.979465 L15.5442062,94.4580148 Z M101.295255,78.6767686 C101.295255,78.6767686 101.201572,64.9081644 117.734162,64.9081644 C134.266752,64.9081644 134.266751,78.6767686 134.266751,78.6767686 L134.266751,98.0505669 C134.266751,98.0505669 134.266752,112.435292 117.734162,112.435292 C101.201572,112.435292 101.201572,98.0505669 101.201572,98.0505669 L101.295255,78.6767686 Z" id="Path-4"></path>
        </g>
    </g>
</svg>